<?xml version="1.0"?><svg id="Layer_1" style="enable-background:new 0 0 100 100;" version="1.1" viewBox="0 0 100 100" xml:space="preserve" xmlns="http://www.w3.org/2000/svg" xmlns:xlink="http://www.w3.org/1999/xlink"><path d="M85,4H15C8.9,4,4,8.9,4,15v70c0,6.1,4.9,11,11,11h35c0.6,0,1-0.4,1-1V60c0-0.6-0.4-1-1-1h-3c-0.6,0-1-0.4-1-1V47  c0-0.6,0.4-1,1-1h3c0.6,0,1-0.4,1-1V30c0-5,4-9,9-9h18c0.6,0,1,0.4,1,1v11c0,0.6-0.4,1-1,1H65c-0.6,0-1,0.4-1,1v10c0,0.6,0.4,1,1,1  h12.2c0.7,0,1.2,0.7,0.9,1.3l-3.7,11C74.4,58.7,74,59,73.6,59H65c-0.6,0-1,0.4-1,1v35c0,0.6,0.4,1,1,1h20c6.1,0,11-4.9,11-11V15  C96,8.9,91.1,4,85,4z"/></svg>