<?xml version="1.0" encoding="UTF-8"?>
<!DOCTYPE svg PUBLIC "-//W3C//DTD SVG 1.1//EN" "http://www.w3.org/Graphics/SVG/1.1/DTD/svg11.dtd">
<!-- Creator: CorelDRAW X7 -->
<svg xmlns="http://www.w3.org/2000/svg" xml:space="preserve" width="210mm" height="297mm" version="1.1" style="shape-rendering:geometricPrecision; text-rendering:geometricPrecision; image-rendering:optimizeQuality; fill-rule:evenodd; clip-rule:evenodd"
viewBox="0 0 21000 29700"
 xmlns:xlink="http://www.w3.org/1999/xlink">
 <defs>
  <style type="text/css">
   <![CDATA[
    .fil0 {fill:black}
   ]]>
  </style>
 </defs>
 <g id="Layer_x0020_1">
  <metadata id="CorelCorpID_0Corel-Layer"/>
  <path class="fil0" d="M18307 4589l-15614 0c-1361,0 -2454,1093 -2454,2454l0 15614c0,1361 1093,2454 2454,2454l7807 0c134,0 223,-89 223,-223l0 -7807c0,-134 -89,-223 -223,-223l-669 0c-134,0 -223,-90 -223,-223l0 -2454c0,-134 89,-223 223,-223l669 0c134,0 223,-89 223,-223l0 -3346c0,-1116 892,-2008 2008,-2008l4015 0c134,0 223,89 223,223l0 2454c0,134 -89,223 -223,223l-2900 0c-134,0 -223,89 -223,223l0 2231c0,134 89,223 223,223l2721 0c157,0 268,156 201,290l-825 2453c0,90 -89,157 -179,157l-1918 0c-134,0 -223,89 -223,223l0 7807c0,134 89,223 223,223l4461 0c1361,0 2454,-1093 2454,-2454l0 -15614c0,-1361 -1093,-2454 -2454,-2454z"/>
 </g>
</svg>
